<svg width="121" height="157" viewBox="0 0 121 157" fill="none" xmlns="http://www.w3.org/2000/svg">
<rect x="23.4924" y="8.59489" width="73.3431" height="118.036" rx="36.6715" stroke="#EFEFEF" stroke-width="17.1898"/>
<path fill-rule="evenodd" clip-rule="evenodd" d="M59.5911 135.223C59.7818 135.225 59.9728 135.226 60.1641 135.226C85.164 135.226 105.43 114.96 105.43 89.9598V45.2664C105.43 20.2665 85.164 0 60.1641 0C59.9728 0 59.7818 0.00118637 59.5911 0.00355216V17.1955C59.7816 17.1917 59.9726 17.1898 60.1641 17.1898C75.6704 17.1898 88.2407 29.7601 88.2407 45.2664V89.9598C88.2407 105.466 75.6704 118.036 60.1641 118.036C59.9726 118.036 59.7816 118.035 59.5911 118.031V135.223Z" fill="#E1E1E1"/>
<rect y="74.489" width="120.328" height="82.5109" rx="13.7518" fill="#5A9CDA"/>
<path fill-rule="evenodd" clip-rule="evenodd" d="M59.5911 157H106.576C114.171 157 120.328 150.843 120.328 143.248V88.2409C120.328 80.646 114.171 74.4891 106.576 74.4891H59.5911V157Z" fill="#478CCC"/>
<circle cx="60.1642" cy="106.004" r="13.1788" fill="#EFEFEF"/>
<path d="M55.5801 134.653C55.5801 137.185 57.6324 139.237 60.1641 139.237C62.6957 139.237 64.748 137.185 64.748 134.653H55.5801ZM55.5801 112.88V134.653H64.748V112.88H55.5801Z" fill="#EFEFEF"/>
</svg>
